Genre: Adventure | Family | Mystery 
Language:English
IMDb:http://www.imdb.com/title/tt1708534
Source:Screener Thx.


Format : MPEG-4
Format profile : Base Media
Codec ID : isom
File size : 1.05 GiB
Duration : 1h 29mn
Overall bit rate : 1 674 Kbps
Movie name : The.Dragon.Pearl.2011.DvDScr.x264.Feel-Free


Video
Format settings, CABAC : Yes
Format settings, ReFrames : 4 frames
Codec ID : avc1
Codec ID/Info : Advanced Video Coding
Duration : 1h 29mn
Bit rate mode : Variable
Bit rate : 1 500 Kbps
Width : 720 pixels
Height : 304 pixels
Display aspect ratio : 2.35:1
Frame rate mode : Constant
Frame rate : 29.970 fps
Color space : YUV
Chroma subsampling : 4:2:0
Bit depth : 8 bits
Scan type : Progressive
Bits/(Pixel*Frame) : 0.229
Stream size : 961 MiB (90%)
Writing library : x264

Audio
ID : 2
Format : AAC
Format/Info : Advanced Audio Codec
Format version : Version 4
Format profile : LC
Codec ID : 40
Duration : 1h 29mn
Bit rate mode : Variable
Bit rate : 165 Kbps
Channel(s) : 2 channels
Channel positions : Front: L R
Sampling rate : 48.0 KHz
Stream size : 106 MiB (10%)


Plot:
The film follows teenagers Josh (Louis Corbett) and Ling (Li Lin Jin),
who join their respective parents, Chris (Sam Neill) and Dr Li (Wang Ji)
on an archaeological dig in China. However, they soon find a Γ??monsterΓ?¥ deep in a cave,
which they soon realise is a mystical dragon that has lost its magical Γ??pearlΓ?¥,
prompting a battle between good and evil.



Greets:

INK,CRYS,IMAGINE,LKRG,FXG,3Li,FLAWL3SS,TA,iLLUSiON,ViSiON,DTRG SAFCuk009,LU,TheFalcon007,MYSTiC,PrisM,Noir,WBZ,LAP,Rx,Kingdom,SAFCuk009+Fabreezy,HDLiTE,TWiZTED,ExtraTorrentRG.ELEKTRI4KA,MAGNAT,CM8
And to all the other p2p grps past and present






================================== 
http://thepiratebay.org/user/hiest
==================================






Screenshots:
 
http://www.pix2links.com/images/54206225474352137716.png
 
http://www.pix2links.com/images/97227236784262591441.png
 
http://www.pix2links.com/images/38188256945158957375.png
 
http://www.pix2links.com/images/28766015996034183660.png
 
http://www.pix2links.com/images/31519176094524367195.png